<svg xmlns="http://www.w3.org/2000/svg" width="22.126" height="22.126" viewBox="0 0 22.126 22.126">
  <g id="Icon_feather-copy" data-name="Icon feather-copy" transform="translate(-2 -2)">
    <path id="Path_2527" data-name="Path 2527" d="M15.513,13.5H24.57a2.013,2.013,0,0,1,2.013,2.013V24.57a2.013,2.013,0,0,1-2.013,2.013H15.513A2.013,2.013,0,0,1,13.5,24.57V15.513A2.013,2.013,0,0,1,15.513,13.5Z" transform="translate(-3.456 -3.456)" fill="none" stroke="#fff" stroke-linecap="round" stroke-linejoin="round" stroke-width="2"/>
    <path id="Path_2528" data-name="Path 2528" d="M6.019,16.082H5.013A2.013,2.013,0,0,1,3,14.07V5.013A2.013,2.013,0,0,1,5.013,3H14.07a2.013,2.013,0,0,1,2.013,2.013V6.019" transform="translate(0 0)" fill="none" stroke="#fff" stroke-linecap="round" stroke-linejoin="round" stroke-width="2"/>
  </g>
</svg>
