<svg xmlns="http://www.w3.org/2000/svg" width="28" height="28.24" viewBox="0 0 28 28.24">
  <g id="Iconly_Bulk_Category" data-name="Iconly/Bulk/Category" transform="translate(-3 -2.759)">
    <g id="Category" transform="translate(2.759 2.759)">
      <path id="Fill_1" data-name="Fill 1" d="M3.5,0H8.174a3.517,3.517,0,0,1,3.5,3.532V8.243a3.517,3.517,0,0,1-3.5,3.532H3.5A3.517,3.517,0,0,1,0,8.243V3.532A3.517,3.517,0,0,1,3.5,0" transform="translate(15.917)" fill="#00ff5f" opacity="0.4"/>
      <path id="Combined_Shape" data-name="Combined Shape" d="M19.705,28a3.569,3.569,0,0,1-3.553-3.583v-4.78a3.569,3.569,0,0,1,3.553-3.585h4.741A3.569,3.569,0,0,1,28,19.636v4.78A3.569,3.569,0,0,1,24.447,28ZM3.554,28A3.57,3.57,0,0,1,0,24.417v-4.78a3.57,3.57,0,0,1,3.554-3.585h4.74a3.569,3.569,0,0,1,3.553,3.585v4.78A3.569,3.569,0,0,1,8.295,28Zm0-16.051A3.569,3.569,0,0,1,0,8.364V3.583A3.569,3.569,0,0,1,3.554,0h4.74a3.568,3.568,0,0,1,3.553,3.583v4.78a3.568,3.568,0,0,1-3.553,3.585Z" transform="translate(0.241 0.24)" fill="#00ff5f"/>
    </g>
  </g>
</svg>
