<svg xmlns="http://www.w3.org/2000/svg" width="23.899" height="23.899" viewBox="0 0 23.899 23.899">
  <g id="Iconly_Bulk_Plus" data-name="Iconly/Bulk/Plus" transform="translate(-2.759 -2.759)">
    <g id="Plus" transform="translate(2.759 2.759)">
      <path id="Path_34200" d="M17.526,0H6.373C2.3,0,0,2.3,0,6.373V17.526C0,21.583,2.294,23.9,6.373,23.9H17.526c4.068,0,6.373-2.316,6.373-6.373V6.373C23.9,2.3,21.594,0,17.526,0Z" fill="#2172e5"/>
      <path id="Path_34201" d="M8.748,5.626H5.675V8.672a.9.9,0,0,1-1.791,0V5.626H.812a.9.9,0,0,1,0-1.785H3.875V.8a.906.906,0,0,1,1.8,0V3.841H8.748a.9.9,0,0,1,0,1.785Z" transform="translate(7.17 7.17)" fill="#fff"/>
    </g>
  </g>
</svg>
