<svg xmlns="http://www.w3.org/2000/svg" width="21.357" height="21.357" viewBox="0 0 21.357 21.357">
  <g id="Iconly_Broken_Search" data-name="Iconly/Broken/Search" transform="translate(-2.759 -2.759)">
    <g id="Search" transform="translate(2.759 2.759)">
      <path id="Search-2" data-name="Search" d="M21.1,19.869l-3.671-3.589h0l-.086-.131a.864.864,0,0,0-1.214,0h0a8.663,8.663,0,0,1-11.233.364A8.2,8.2,0,0,1,3.071,5.671,8.624,8.624,0,0,1,13.832,2.5a8.267,8.267,0,0,1,4.607,10.022.832.832,0,0,0,.194.824.877.877,0,0,0,.827.248.857.857,0,0,0,.633-.576h0A9.968,9.968,0,0,0,14.754,1,10.416,10.416,0,0,0,1.8,4.363,9.884,9.884,0,0,0,3.256,17.384a10.453,10.453,0,0,0,13.386.55l3.25,3.178a.874.874,0,0,0,1.214,0,.837.837,0,0,0,0-1.2h0Z" transform="translate(0)" fill="#fafbfb"/>
    </g>
  </g>
</svg>
