<svg xmlns="http://www.w3.org/2000/svg" width="27.595" height="27.592" viewBox="0 0 27.595 27.592">
  <g id="Iconly_Broken_Activity" data-name="Iconly/Broken/Activity" transform="translate(-2.759 -2.759)">
    <g id="Activity" transform="translate(2.759 2.759)">
      <path id="Activity-2" data-name="Activity" d="M14.217,27.592a1.022,1.022,0,0,1-1.024-1.009,1.035,1.035,0,0,1,1.024-1.022H18.29c4.035,0,6.267-2.214,6.3-6.253v-8.93a1.006,1.006,0,1,1,2.013,0v8.93c0,5.109-3.195,8.284-8.315,8.284ZM0,19.308V9.368c0-5.122,3.182-8.3,8.3-8.3h8.975A1.025,1.025,0,0,1,18.29,2.092,1.013,1.013,0,0,1,17.265,3.1H8.3c-4.035,0-6.267,2.226-6.267,6.265v9.94c0,4.039,2.231,6.253,6.267,6.253a1.035,1.035,0,0,1,1.024,1.022A1.022,1.022,0,0,1,8.3,27.592C3.182,27.592,0,24.417,0,19.308Zm6.413-.839a1.022,1.022,0,0,1-.183-1.424l3.987-5.183a1.027,1.027,0,0,1,1.439-.183L15.4,14.612l3.293-4.2a1.011,1.011,0,0,1,1.584,1.217l-3.9,5.025a1.088,1.088,0,0,1-.683.389,1.024,1.024,0,0,1-.744-.219L11.2,13.894,7.84,18.261a1.017,1.017,0,0,1-.816.412A1.016,1.016,0,0,1,6.413,18.468ZM20.423,3.59a3.586,3.586,0,1,1,3.585,3.564A3.567,3.567,0,0,1,20.423,3.59Zm2.036,0a1.548,1.548,0,1,0,1.548-1.546A1.548,1.548,0,0,0,22.459,3.59Z" fill="#fff"/>
    </g>
  </g>
</svg>
