<svg xmlns="http://www.w3.org/2000/svg" width="38.326" height="38.326" viewBox="0 0 38.326 38.326">
  <path id="Icon_metro-cross" data-name="Icon metro-cross" d="M40.547,32.718h0L28.92,21.091,40.547,9.464h0a1.2,1.2,0,0,0,0-1.693L35.055,2.278a1.2,1.2,0,0,0-1.693,0h0L21.734,13.9,10.107,2.278h0a1.2,1.2,0,0,0-1.693,0L2.921,7.77a1.2,1.2,0,0,0,0,1.693h0L14.548,21.091,2.921,32.718h0a1.2,1.2,0,0,0,0,1.693L8.413,39.9a1.2,1.2,0,0,0,1.693,0h0L21.734,28.277,33.361,39.9h0a1.2,1.2,0,0,0,1.693,0l5.492-5.492a1.2,1.2,0,0,0,0-1.693Z" transform="translate(-2.571 -1.928)" fill="#06d554"/>
</svg>
